<svg width="1870" height="581" viewBox="0 0 1870 581" fill="none" xmlns="http://www.w3.org/2000/svg">
<rect width="1870" height="581" fill="white"/>
<path d="M0 2C0 0.895434 0.895431 0 2 0H1868C1869.1 0 1870 0.895431 1870 2V579C1870 580.105 1869.1 581 1868 581H2.00005C0.895481 581 0 580.105 0 579V2Z" fill="white"/>
<path d="M2 1H1868V-1H2V1ZM1869 2V579H1871V2H1869ZM1868 580H2.00005V582H1868V580ZM1 579V2H-1V579H1ZM2.00005 580C1.44773 580 1 579.552 1 579H-1C-1 580.657 0.343229 582 2.00005 582V580ZM1869 579C1869 579.552 1868.55 580 1868 580V582C1869.66 582 1871 580.657 1871 579H1869ZM1868 1C1868.55 1 1869 1.44775 1869 2H1871C1871 0.343113 1869.66 -1 1868 -1V1ZM2 -1C0.343143 -1 -1 0.343152 -1 2H1C1 1.44772 1.44772 1 2 1V-1Z" fill="white" fill-opacity="0.1"/>
<path d="M147.072 449.04C125.232 449.04 105.408 443.664 87.6 432.912C69.792 421.824 55.68 406.872 45.264 388.056C35.184 369.24 30.144 348.072 30.144 324.552C30.144 301.032 35.184 279.864 45.264 261.048C55.68 242.232 69.624 227.28 87.096 216.192C104.904 205.104 124.896 199.56 147.072 199.56C165.216 199.56 181.344 203.424 195.456 211.152C209.904 218.544 221.496 228.96 230.232 242.4C238.968 255.504 243.84 270.792 244.848 288.264V360.336C243.84 377.472 238.968 392.76 230.232 406.2C221.832 419.64 210.408 430.224 195.96 437.952C181.848 445.344 165.552 449.04 147.072 449.04ZM154.632 406.2C177.144 406.2 195.288 398.64 209.064 383.52C222.84 368.064 229.728 348.408 229.728 324.552C229.728 308.088 226.536 293.808 220.152 281.712C214.104 269.28 205.368 259.704 193.944 252.984C182.52 245.928 169.248 242.4 154.128 242.4C139.008 242.4 125.568 245.928 113.808 252.984C102.384 260.04 93.312 269.784 86.592 282.216C80.208 294.312 77.016 308.256 77.016 324.048C77.016 340.176 80.208 354.456 86.592 366.888C93.312 378.984 102.552 388.56 114.312 395.616C126.072 402.672 139.512 406.2 154.632 406.2ZM226.704 444V379.488L235.272 321.024L226.704 263.064V204.6H272.568V444H226.704Z" fill="url(#paint0_linear_0_1)"/>
<path d="M338.608 444V84.144H383.968V444H338.608Z" fill="url(#paint1_linear_0_1)"/>
<path d="M549.622 549.336C525.094 549.336 503.254 544.8 484.102 535.728C465.286 526.656 450.166 513.888 438.742 497.424L467.974 467.688C477.718 480.12 489.31 489.528 502.75 495.912C516.19 502.632 532.15 505.992 550.63 505.992C575.158 505.992 594.478 499.44 608.59 486.336C623.038 473.568 630.262 456.264 630.262 434.424V374.952L638.326 321.024L630.262 267.6V204.6H675.622V434.424C675.622 457.272 670.246 477.264 659.494 494.4C649.078 511.536 634.294 524.976 615.142 534.72C596.326 544.464 574.486 549.336 549.622 549.336ZM549.622 439.968C527.782 439.968 508.126 434.76 490.654 424.344C473.518 413.928 459.91 399.648 449.83 381.504C439.75 363.024 434.71 342.36 434.71 319.512C434.71 296.664 439.75 276.336 449.83 258.528C459.91 240.384 473.518 226.104 490.654 215.688C508.126 204.936 527.782 199.56 549.622 199.56C568.438 199.56 585.07 203.256 599.518 210.648C613.966 218.04 625.39 228.456 633.79 241.896C642.526 255 647.23 270.456 647.902 288.264V351.768C646.894 369.24 642.022 384.696 633.286 398.136C624.886 411.24 613.462 421.488 599.014 428.88C584.566 436.272 568.102 439.968 549.622 439.968ZM558.694 397.128C573.478 397.128 586.414 393.936 597.502 387.552C608.926 381.168 617.662 372.264 623.71 360.84C629.758 349.08 632.782 335.472 632.782 320.016C632.782 304.56 629.59 291.12 623.206 279.696C617.158 267.936 608.59 258.864 597.502 252.48C586.414 245.76 573.31 242.4 558.19 242.4C543.07 242.4 529.798 245.76 518.374 252.48C506.95 258.864 497.878 267.936 491.158 279.696C484.774 291.12 481.582 304.392 481.582 319.512C481.582 334.632 484.774 348.072 491.158 359.832C497.878 371.592 506.95 380.832 518.374 387.552C530.134 393.936 543.574 397.128 558.694 397.128Z" fill="url(#paint2_linear_0_1)"/>
<path d="M844.009 449.04C822.169 449.04 802.345 443.664 784.537 432.912C766.729 421.824 752.617 406.872 742.201 388.056C732.121 369.24 727.081 348.072 727.081 324.552C727.081 301.032 732.121 279.864 742.201 261.048C752.617 242.232 766.562 227.28 784.034 216.192C801.842 205.104 821.833 199.56 844.009 199.56C862.153 199.56 878.281 203.424 892.393 211.152C906.841 218.544 918.433 228.96 927.169 242.4C935.905 255.504 940.777 270.792 941.785 288.264V360.336C940.777 377.472 935.905 392.76 927.169 406.2C918.769 419.64 907.345 430.224 892.897 437.952C878.785 445.344 862.489 449.04 844.009 449.04ZM851.57 406.2C874.082 406.2 892.226 398.64 906.002 383.52C919.778 368.064 926.665 348.408 926.665 324.552C926.665 308.088 923.473 293.808 917.089 281.712C911.041 269.28 902.305 259.704 890.881 252.984C879.457 245.928 866.185 242.4 851.065 242.4C835.945 242.4 822.505 245.928 810.745 252.984C799.321 260.04 790.249 269.784 783.529 282.216C777.145 294.312 773.953 308.256 773.953 324.048C773.953 340.176 777.145 354.456 783.529 366.888C790.249 378.984 799.49 388.56 811.25 395.616C823.01 402.672 836.45 406.2 851.57 406.2ZM923.641 444V379.488L932.209 321.024L923.641 263.064V204.6H969.505V444H923.641Z" fill="url(#paint3_linear_0_1)"/>
<path d="M1161.55 449.04C1143.4 449.04 1126.94 445.344 1112.15 437.952C1097.71 430.224 1086.11 419.64 1077.38 406.2C1068.64 392.76 1063.77 377.472 1062.76 360.336V288.264C1063.77 270.792 1068.64 255.504 1077.38 242.4C1086.45 228.96 1098.21 218.544 1112.66 211.152C1127.44 203.424 1143.74 199.56 1161.55 199.56C1183.39 199.56 1203.04 205.104 1220.51 216.192C1238.32 227.28 1252.27 242.232 1262.35 261.048C1272.43 279.864 1277.47 301.032 1277.47 324.552C1277.47 348.072 1272.43 369.24 1262.35 388.056C1252.27 406.872 1238.32 421.824 1220.51 432.912C1203.04 443.664 1183.39 449.04 1161.55 449.04ZM1153.99 406.2C1169.11 406.2 1182.38 402.672 1193.8 395.616C1205.23 388.56 1214.3 378.984 1221.02 366.888C1227.74 354.456 1231.1 340.176 1231.1 324.048C1231.1 308.256 1227.74 294.144 1221.02 281.712C1214.3 269.28 1205.23 259.704 1193.8 252.984C1182.38 245.928 1169.27 242.4 1154.49 242.4C1139.37 242.4 1126.1 245.928 1114.67 252.984C1103.25 259.704 1094.35 269.28 1087.96 281.712C1081.58 294.144 1078.39 308.424 1078.39 324.552C1078.39 340.344 1081.41 354.456 1087.46 366.888C1093.84 378.984 1102.75 388.56 1114.17 395.616C1125.93 402.672 1139.2 406.2 1153.99 406.2ZM1035.55 444V84.144H1080.91V263.064L1072.34 321.024L1080.91 379.488V444H1035.55Z" fill="url(#paint4_linear_0_1)"/>
<path d="M1430.7 449.04C1408.86 449.04 1389.03 443.664 1371.23 432.912C1353.42 421.824 1339.3 406.872 1328.89 388.056C1318.81 369.24 1313.77 348.072 1313.77 324.552C1313.77 301.032 1318.81 279.864 1328.89 261.048C1339.3 242.232 1353.25 227.28 1370.72 216.192C1388.53 205.104 1408.52 199.56 1430.7 199.56C1448.84 199.56 1464.97 203.424 1479.08 211.152C1493.53 218.544 1505.12 228.96 1513.86 242.4C1522.59 255.504 1527.46 270.792 1528.47 288.264V360.336C1527.46 377.472 1522.59 392.76 1513.86 406.2C1505.46 419.64 1494.03 430.224 1479.59 437.952C1465.47 445.344 1449.18 449.04 1430.7 449.04ZM1438.26 406.2C1460.77 406.2 1478.91 398.64 1492.69 383.52C1506.47 368.064 1513.35 348.408 1513.35 324.552C1513.35 308.088 1510.16 293.808 1503.78 281.712C1497.73 269.28 1488.99 259.704 1477.57 252.984C1466.15 245.928 1452.87 242.4 1437.75 242.4C1422.63 242.4 1409.19 245.928 1397.43 252.984C1386.01 260.04 1376.94 269.784 1370.22 282.216C1363.83 294.312 1360.64 308.256 1360.64 324.048C1360.64 340.176 1363.83 354.456 1370.22 366.888C1376.94 378.984 1386.18 388.56 1397.94 395.616C1409.7 402.672 1423.14 406.2 1438.26 406.2ZM1510.33 444V379.488L1518.9 321.024L1510.33 263.064V204.6H1556.19V444H1510.33Z" fill="url(#paint5_linear_0_1)"/>
<path d="M1700.86 446.016L1597.03 204.6H1647.43L1724.54 393.6H1708.42L1789.56 204.6H1839.96L1728.07 446.016H1700.86ZM1632.31 544.296L1702.87 399.648L1728.07 446.016L1682.71 544.296H1632.31Z" fill="url(#paint6_linear_0_1)"/>
<path fill-rule="evenodd" clip-rule="evenodd" d="M354.08 44.9786C351.941 46.0688 348.165 49.0501 345.69 51.6053C341.607 55.8187 295.048 107.67 282.964 121.46C280.213 124.599 276.153 129.229 273.941 131.75C264.154 142.9 266.652 154.461 280.007 159.823C283.926 161.395 284.714 161.394 289.68 159.809C293.99 158.433 296.503 156.526 302.069 150.412C305.911 146.192 310.902 140.818 313.161 138.469C315.421 136.12 318.177 133.191 319.285 131.961C324.674 125.975 338.684 111.087 344.627 105.028C353.732 95.7462 360.564 93.2892 368.195 96.5534C371.579 98.0013 374.967 101.142 386.343 113.376C390.439 117.781 394.981 122.614 396.436 124.115C397.891 125.617 402.315 130.422 406.265 134.793C410.216 139.164 414.216 143.519 415.155 144.47C428.741 158.237 429.768 159.068 434.633 160.245C442.676 162.192 450.058 158.365 453.49 150.473C456.821 142.812 454.857 137.117 445.436 127.131C442.454 123.971 430.818 111.054 419.58 98.4274C390.398 65.6434 391.347 66.6941 379.574 54.1146C369.331 43.1709 362.461 40.7086 354.08 44.9786Z" fill="url(#paint7_linear_0_1)"/>
<defs>
<linearGradient id="paint0_linear_0_1" x1="1290.19" y1="-144.285" x2="1291.06" y2="715.001" gradientUnits="userSpaceOnUse">
<stop offset="0.9999" stop-color="#2E2E2E"/>
<stop offset="1" stop-color="#5AA1F2"/>
</linearGradient>
<linearGradient id="paint1_linear_0_1" x1="1290.19" y1="-144.285" x2="1291.06" y2="715.001" gradientUnits="userSpaceOnUse">
<stop offset="0.9999" stop-color="#2E2E2E"/>
<stop offset="1" stop-color="#5AA1F2"/>
</linearGradient>
<linearGradient id="paint2_linear_0_1" x1="1290.19" y1="-144.285" x2="1291.06" y2="715.001" gradientUnits="userSpaceOnUse">
<stop offset="0.9999" stop-color="#2E2E2E"/>
<stop offset="1" stop-color="#5AA1F2"/>
</linearGradient>
<linearGradient id="paint3_linear_0_1" x1="1290.19" y1="-144.285" x2="1291.06" y2="715.001" gradientUnits="userSpaceOnUse">
<stop offset="0.9999" stop-color="#2E2E2E"/>
<stop offset="1" stop-color="#5AA1F2"/>
</linearGradient>
<linearGradient id="paint4_linear_0_1" x1="1290.19" y1="-144.285" x2="1291.06" y2="715.001" gradientUnits="userSpaceOnUse">
<stop offset="0.9999" stop-color="#2E2E2E"/>
<stop offset="1" stop-color="#5AA1F2"/>
</linearGradient>
<linearGradient id="paint5_linear_0_1" x1="1290.19" y1="-144.285" x2="1291.06" y2="715.001" gradientUnits="userSpaceOnUse">
<stop offset="0.9999" stop-color="#2E2E2E"/>
<stop offset="1" stop-color="#5AA1F2"/>
</linearGradient>
<linearGradient id="paint6_linear_0_1" x1="1290.19" y1="-144.285" x2="1291.06" y2="715.001" gradientUnits="userSpaceOnUse">
<stop offset="0.9999" stop-color="#2E2E2E"/>
<stop offset="1" stop-color="#5AA1F2"/>
</linearGradient>
<linearGradient id="paint7_linear_0_1" x1="361.5" y1="43" x2="348.401" y2="831.306" gradientUnits="userSpaceOnUse">
<stop offset="0.9999" stop-color="#2E2E2E"/>
<stop offset="1" stop-color="#5FB2BC"/>
</linearGradient>
</defs>
</svg>
